<?xml version="1.0" encoding="utf-8"?>
<!-- Generator: Adobe Illustrator 24.1.3, SVG Export Plug-In . SVG Version: 6.00 Build 0)  -->
<svg version="1.1" id="Layer_1" xmlns="http://www.w3.org/2000/svg" xmlns:xlink="http://www.w3.org/1999/xlink" x="0px" y="0px"
	 viewBox="0 0 841.89 595.28" style="enable-background:new 0 0 841.89 595.28;" xml:space="preserve">
<style type="text/css">
	.st0{display:none;fill:#310871;}
	.st1{display:none;}
	.st2{display:inline;}
	.st3{fill:#FFFFFF;}
	.st4{fill-rule:evenodd;clip-rule:evenodd;fill:#F25667;}
	.st5{fill-rule:evenodd;clip-rule:evenodd;fill:#F7941D;}
	.st6{fill:#310871;}
</style>
<rect class="st0" width="841.89" height="595.28"/>
<g class="st1">
	<g class="st2">
		<path class="st3" d="M198.33,227.33v32.36c2.96-5.12,7.28-9.3,12.94-12.54c4.85-2.69,10.78-4.04,17.8-4.04
			c12.67,0,23.05,5.26,31.14,15.77c8.09,10.52,12.13,24.13,12.13,40.85c0,16.72-4.05,30.34-12.13,40.85
			c-4.04,5.13-9.5,8.84-16.38,11.12c-6.88,2.29-13.69,3.44-20.43,3.44c-12.94,0-24.94-3.37-36-10.11
			c-11.06-6.74-16.58-19.68-16.58-38.83v-92.62h13.75c3.77,0,7.01,1.35,9.71,4.05C196.98,220.33,198.33,223.56,198.33,227.33z
			 M244.44,298.52c0-9.71-2.02-17.25-6.07-22.65c-4.04-5.66-9.57-8.49-16.58-8.49c-7.55,0-13.35,2.7-17.39,8.09
			c-4.04,5.66-6.07,13.35-6.07,23.05c0,11.33,1.88,19.55,5.66,24.67c4.05,5.66,9.71,8.49,16.99,8.49c7.55,0,13.35-2.83,17.39-8.49
			C242.42,317.53,244.44,309.31,244.44,298.52z"/>
		<path class="st3" d="M277.2,353.12v-52.18c0-10.52,1.55-19.34,4.65-26.49c3.1-7.14,7.34-12.87,12.74-17.19
			c5.12-4.05,11.12-7.01,18-8.9c6.88-1.88,13.95-2.83,21.23-2.83c0.54,0,1.21,0,2.02,0c0.81,0,1.48,0,2.02,0v28.72h-9.3
			c-7.82,0-13.62,1.89-17.39,5.66c-3.78,3.78-5.66,9.71-5.66,17.8v55.41H277.2z"/>
		<path class="st3" d="M409.46,348.67c-5.66,2.97-11.67,4.78-18,5.46c-6.34,0.67-11.93,1.01-16.78,1.01
			c-9.71,0-18.2-2.63-25.48-7.89c-7.28-5.26-10.92-13.95-10.92-26.09c0-11.32,3.3-19.42,9.91-24.27c6.6-4.85,15.03-8.09,25.28-9.71
			c1.35,0,2.96-0.2,4.85-0.61c1.88-0.41,4.05-0.74,6.47-1.01c11.86-1.62,17.8-5.12,17.8-10.52c0-4.04-2.09-6.67-6.27-7.89
			c-4.18-1.21-8.03-1.82-11.53-1.82c-3.78,0-7.15,0.54-10.11,1.62c-2.97,1.08-5.13,3.1-6.47,6.07h-27.1
			c1.08-8.35,4.85-15.23,11.33-20.63c7.28-6.2,17.66-9.3,31.14-9.3c15.1,0,26.42,2.57,33.98,7.68c7.82,5.4,11.73,12.94,11.73,22.65
			v36.81c0,10.79-1.96,19.21-5.87,25.28C419.51,341.6,414.85,345.98,409.46,348.67z M402.99,298.93c-3.78,1.89-9.04,3.64-15.77,5.26
			l-9.3,2.02c-4.85,1.35-8.36,3.1-10.52,5.26c-1.89,2.97-2.83,5.93-2.83,8.9c0,4.05,1.21,7.28,3.64,9.71
			c2.43,2.16,5.93,3.24,10.52,3.24c7.55,0,13.48-2.16,17.8-6.47c4.31-4.31,6.47-10.24,6.47-17.8V298.93z"/>
		<path class="st3" d="M552.62,391.14V368.9h7.68c5.39,0,9.64-1.28,12.74-3.84c3.1-2.57,3.7-6.67,1.82-12.34l-37.62-107.18h31.14
			l21.84,76.04l19.01-66.33c1.62-6.47,5.93-9.71,12.94-9.71h19.42l-41.26,122.55c-3.24,8.9-7.28,15.23-12.13,19.01
			c-4.85,3.24-12.81,4.85-23.86,4.85c-0.81,0-1.76,0-2.83,0c-1.08,0-2.02,0-2.83,0c-0.81-0.27-1.82-0.47-3.03-0.61
			C554.44,391.21,553.43,391.14,552.62,391.14z"/>
	</g>
	<g class="st2">
		<path class="st4" d="M497.93,353.96h30.2c4.59,0,8.31-3.72,8.31-8.31v-12.02c0-4.59-3.72-8.31-8.31-8.31h-21.81
			c-4.63,0-8.38,3.75-8.38,8.38V353.96z"/>
		<path class="st5" d="M536.43,262.2c0-9.2-7.46-16.66-16.66-16.66h-88.21v12.02c0,9.18,7.44,16.63,16.63,16.63h41.09l-47.11,47.11
			c-7.96,7.96-7.96,20.86,0,28.82l4.5,4.5c0.74,0.74,1.94,0.74,2.68,0l84.17-84.17c0.1-0.1,0.16-0.23,0.23-0.35
			c1.68-1.99,2.69-4.56,2.69-7.37V262.2z"/>
	</g>
</g>
<g>
	<g>
		<path class="st6" d="M224.4,214.81v29.12c2.67-4.61,6.55-8.37,11.65-11.28c4.37-2.42,9.7-3.64,16.02-3.64
			c11.4,0,20.75,4.73,28.03,14.2c7.28,9.46,10.92,21.72,10.92,36.76c0,15.05-3.64,27.3-10.92,36.76
			c-3.64,4.61-8.55,7.95-14.74,10.01c-6.19,2.06-12.32,3.1-18.38,3.1c-11.65,0-22.45-3.03-32.4-9.1
			c-9.95-6.06-14.92-17.71-14.92-34.94v-83.36h12.38c3.4,0,6.31,1.22,8.74,3.64C223.19,208.51,224.4,211.42,224.4,214.81z
			 M265.9,278.88c0-8.74-1.82-15.53-5.46-20.38c-3.64-5.1-8.62-7.64-14.92-7.64c-6.8,0-12.01,2.43-15.65,7.28
			c-3.64,5.1-5.46,12.01-5.46,20.75c0,10.19,1.69,17.6,5.1,22.2c3.64,5.1,8.74,7.64,15.29,7.64c6.79,0,12.01-2.55,15.65-7.64
			C264.08,295.99,265.9,288.59,265.9,278.88z"/>
		<path class="st6" d="M295.39,328.02v-46.96c0-9.46,1.39-17.41,4.19-23.84c2.79-6.43,6.61-11.59,11.47-15.47
			c4.61-3.64,10.01-6.31,16.2-8.01c6.19-1.69,12.56-2.55,19.11-2.55c0.48,0,1.09,0,1.82,0c0.73,0,1.33,0,1.82,0v25.85h-8.37
			c-7.04,0-12.26,1.7-15.65,5.1c-3.4,3.4-5.1,8.74-5.1,16.02v49.87H295.39z"/>
		<path class="st6" d="M414.42,324.02c-5.1,2.67-10.5,4.31-16.2,4.91c-5.7,0.6-10.74,0.91-15.11,0.91c-8.74,0-16.38-2.37-22.93-7.1
			c-6.55-4.73-9.83-12.56-9.83-23.48c0-10.19,2.97-17.47,8.92-21.84c5.94-4.37,13.52-7.28,22.75-8.74c1.21,0,2.67-0.18,4.37-0.55
			c1.69-0.36,3.64-0.67,5.82-0.91c10.68-1.46,16.02-4.61,16.02-9.46c0-3.64-1.88-6.01-5.64-7.1c-3.77-1.09-7.22-1.64-10.38-1.64
			c-3.4,0-6.43,0.49-9.1,1.46c-2.67,0.97-4.61,2.79-5.82,5.46H352.9c0.97-7.52,4.37-13.71,10.19-18.56
			c6.55-5.58,15.89-8.37,28.03-8.37c13.59,0,23.78,2.31,30.58,6.92c7.04,4.86,10.56,11.65,10.56,20.38v33.13
			c0,9.71-1.76,17.29-5.28,22.75C423.45,317.65,419.27,321.59,414.42,324.02z M408.59,279.24c-3.4,1.7-8.13,3.28-14.2,4.73
			l-8.37,1.82c-4.37,1.22-7.53,2.79-9.46,4.73c-1.7,2.67-2.55,5.34-2.55,8.01c0,3.64,1.09,6.55,3.28,8.74
			c2.18,1.94,5.33,2.91,9.46,2.91c6.79,0,12.13-1.94,16.02-5.83c3.88-3.88,5.82-9.22,5.82-16.02V279.24z"/>
		<path class="st6" d="M543.25,362.24v-20.02h6.92c4.85,0,8.67-1.15,11.47-3.46c2.79-2.31,3.33-6.01,1.64-11.1l-33.85-96.46h28.03
			l19.66,68.43l17.11-59.7c1.46-5.83,5.34-8.74,11.65-8.74h17.47L586.2,341.49c-2.91,8.01-6.55,13.71-10.92,17.11
			c-4.37,2.91-11.53,4.37-21.48,4.37c-0.73,0-1.58,0-2.55,0c-0.97,0-1.82,0-2.55,0c-0.73-0.24-1.64-0.43-2.73-0.55
			C544.89,362.29,543.98,362.24,543.25,362.24z"/>
	</g>
	<g>
		<path class="st4" d="M494.03,328.78h25.17c5.24,0,9.48-4.25,9.48-9.48v-6.81c0-5.24-4.25-9.48-9.48-9.48H503.6
			c-5.28,0-9.57,4.28-9.57,9.57V328.78z"/>
		<path class="st5" d="M528.69,246.19c0-8.28-6.71-15-15-15H434.3v10.81c0,8.26,6.7,14.96,14.96,14.96h36.98l-42.4,42.4
			c-7.16,7.16-7.16,18.78,0,25.94l4.05,4.05c0.67,0.67,1.75,0.67,2.41,0l75.75-75.75c0.09-0.09,0.14-0.21,0.21-0.32
			c1.51-1.79,2.42-4.1,2.42-6.63V246.19z"/>
	</g>
</g>
</svg>
